%TF.GenerationSoftware,KiCad,Pcbnew,5.1.6-c6e7f7d~86~ubuntu18.04.1*%
%TF.CreationDate,2020-05-18T00:48:30-07:00*%
%TF.ProjectId,kbdflex,6b626466-6c65-4782-9e6b-696361645f70,rev?*%
%TF.SameCoordinates,Original*%
%TF.FileFunction,Soldermask,Top*%
%TF.FilePolarity,Negative*%
%FSLAX46Y46*%
G04 Gerber Fmt 4.6, Leading zero omitted, Abs format (unit mm)*
G04 Created by KiCad (PCBNEW 5.1.6-c6e7f7d~86~ubuntu18.04.1) date 2020-05-18 00:48:30*
%MOMM*%
%LPD*%
G01*
G04 APERTURE LIST*
G04 APERTURE END LIST*
%TO.C,J2*%
G36*
G01*
X52900000Y-50800000D02*
X52900000Y-51200000D01*
G75*
G02*
X52700000Y-51400000I-200000J0D01*
G01*
X50300000Y-51400000D01*
G75*
G02*
X50100000Y-51200000I0J200000D01*
G01*
X50100000Y-50800000D01*
G75*
G02*
X50300000Y-50600000I200000J0D01*
G01*
X52700000Y-50600000D01*
G75*
G02*
X52900000Y-50800000I0J-200000D01*
G01*
G37*
G36*
G01*
X52900000Y-51800000D02*
X52900000Y-52200000D01*
G75*
G02*
X52700000Y-52400000I-200000J0D01*
G01*
X50300000Y-52400000D01*
G75*
G02*
X50100000Y-52200000I0J200000D01*
G01*
X50100000Y-51800000D01*
G75*
G02*
X50300000Y-51600000I200000J0D01*
G01*
X52700000Y-51600000D01*
G75*
G02*
X52900000Y-51800000I0J-200000D01*
G01*
G37*
G36*
G01*
X52900000Y-52800000D02*
X52900000Y-53200000D01*
G75*
G02*
X52700000Y-53400000I-200000J0D01*
G01*
X50300000Y-53400000D01*
G75*
G02*
X50100000Y-53200000I0J200000D01*
G01*
X50100000Y-52800000D01*
G75*
G02*
X50300000Y-52600000I200000J0D01*
G01*
X52700000Y-52600000D01*
G75*
G02*
X52900000Y-52800000I0J-200000D01*
G01*
G37*
G36*
G01*
X52900000Y-53800000D02*
X52900000Y-54200000D01*
G75*
G02*
X52700000Y-54400000I-200000J0D01*
G01*
X50300000Y-54400000D01*
G75*
G02*
X50100000Y-54200000I0J200000D01*
G01*
X50100000Y-53800000D01*
G75*
G02*
X50300000Y-53600000I200000J0D01*
G01*
X52700000Y-53600000D01*
G75*
G02*
X52900000Y-53800000I0J-200000D01*
G01*
G37*
G36*
G01*
X52900000Y-54800000D02*
X52900000Y-55200000D01*
G75*
G02*
X52700000Y-55400000I-200000J0D01*
G01*
X50300000Y-55400000D01*
G75*
G02*
X50100000Y-55200000I0J200000D01*
G01*
X50100000Y-54800000D01*
G75*
G02*
X50300000Y-54600000I200000J0D01*
G01*
X52700000Y-54600000D01*
G75*
G02*
X52900000Y-54800000I0J-200000D01*
G01*
G37*
G36*
G01*
X52900000Y-55800000D02*
X52900000Y-56200000D01*
G75*
G02*
X52700000Y-56400000I-200000J0D01*
G01*
X50300000Y-56400000D01*
G75*
G02*
X50100000Y-56200000I0J200000D01*
G01*
X50100000Y-55800000D01*
G75*
G02*
X50300000Y-55600000I200000J0D01*
G01*
X52700000Y-55600000D01*
G75*
G02*
X52900000Y-55800000I0J-200000D01*
G01*
G37*
G36*
G01*
X52900000Y-56800000D02*
X52900000Y-57200000D01*
G75*
G02*
X52700000Y-57400000I-200000J0D01*
G01*
X50300000Y-57400000D01*
G75*
G02*
X50100000Y-57200000I0J200000D01*
G01*
X50100000Y-56800000D01*
G75*
G02*
X50300000Y-56600000I200000J0D01*
G01*
X52700000Y-56600000D01*
G75*
G02*
X52900000Y-56800000I0J-200000D01*
G01*
G37*
G36*
G01*
X52900000Y-57800000D02*
X52900000Y-58200000D01*
G75*
G02*
X52700000Y-58400000I-200000J0D01*
G01*
X50300000Y-58400000D01*
G75*
G02*
X50100000Y-58200000I0J200000D01*
G01*
X50100000Y-57800000D01*
G75*
G02*
X50300000Y-57600000I200000J0D01*
G01*
X52700000Y-57600000D01*
G75*
G02*
X52900000Y-57800000I0J-200000D01*
G01*
G37*
G36*
G01*
X52900000Y-58800000D02*
X52900000Y-59200000D01*
G75*
G02*
X52700000Y-59400000I-200000J0D01*
G01*
X50300000Y-59400000D01*
G75*
G02*
X50100000Y-59200000I0J200000D01*
G01*
X50100000Y-58800000D01*
G75*
G02*
X50300000Y-58600000I200000J0D01*
G01*
X52700000Y-58600000D01*
G75*
G02*
X52900000Y-58800000I0J-200000D01*
G01*
G37*
G36*
G01*
X52900000Y-59800000D02*
X52900000Y-60200000D01*
G75*
G02*
X52700000Y-60400000I-200000J0D01*
G01*
X50300000Y-60400000D01*
G75*
G02*
X50100000Y-60200000I0J200000D01*
G01*
X50100000Y-59800000D01*
G75*
G02*
X50300000Y-59600000I200000J0D01*
G01*
X52700000Y-59600000D01*
G75*
G02*
X52900000Y-59800000I0J-200000D01*
G01*
G37*
G36*
G01*
X52900000Y-60800000D02*
X52900000Y-61200000D01*
G75*
G02*
X52700000Y-61400000I-200000J0D01*
G01*
X50300000Y-61400000D01*
G75*
G02*
X50100000Y-61200000I0J200000D01*
G01*
X50100000Y-60800000D01*
G75*
G02*
X50300000Y-60600000I200000J0D01*
G01*
X52700000Y-60600000D01*
G75*
G02*
X52900000Y-60800000I0J-200000D01*
G01*
G37*
G36*
G01*
X52900000Y-61800000D02*
X52900000Y-62200000D01*
G75*
G02*
X52700000Y-62400000I-200000J0D01*
G01*
X50300000Y-62400000D01*
G75*
G02*
X50100000Y-62200000I0J200000D01*
G01*
X50100000Y-61800000D01*
G75*
G02*
X50300000Y-61600000I200000J0D01*
G01*
X52700000Y-61600000D01*
G75*
G02*
X52900000Y-61800000I0J-200000D01*
G01*
G37*
G36*
G01*
X52900000Y-62800000D02*
X52900000Y-63200000D01*
G75*
G02*
X52700000Y-63400000I-200000J0D01*
G01*
X50300000Y-63400000D01*
G75*
G02*
X50100000Y-63200000I0J200000D01*
G01*
X50100000Y-62800000D01*
G75*
G02*
X50300000Y-62600000I200000J0D01*
G01*
X52700000Y-62600000D01*
G75*
G02*
X52900000Y-62800000I0J-200000D01*
G01*
G37*
G36*
G01*
X52900000Y-63800000D02*
X52900000Y-64200000D01*
G75*
G02*
X52700000Y-64400000I-200000J0D01*
G01*
X50300000Y-64400000D01*
G75*
G02*
X50100000Y-64200000I0J200000D01*
G01*
X50100000Y-63800000D01*
G75*
G02*
X50300000Y-63600000I200000J0D01*
G01*
X52700000Y-63600000D01*
G75*
G02*
X52900000Y-63800000I0J-200000D01*
G01*
G37*
G36*
G01*
X52900000Y-64800000D02*
X52900000Y-65200000D01*
G75*
G02*
X52700000Y-65400000I-200000J0D01*
G01*
X50300000Y-65400000D01*
G75*
G02*
X50100000Y-65200000I0J200000D01*
G01*
X50100000Y-64800000D01*
G75*
G02*
X50300000Y-64600000I200000J0D01*
G01*
X52700000Y-64600000D01*
G75*
G02*
X52900000Y-64800000I0J-200000D01*
G01*
G37*
G36*
G01*
X52900000Y-65800000D02*
X52900000Y-66200000D01*
G75*
G02*
X52700000Y-66400000I-200000J0D01*
G01*
X50300000Y-66400000D01*
G75*
G02*
X50100000Y-66200000I0J200000D01*
G01*
X50100000Y-65800000D01*
G75*
G02*
X50300000Y-65600000I200000J0D01*
G01*
X52700000Y-65600000D01*
G75*
G02*
X52900000Y-65800000I0J-200000D01*
G01*
G37*
G36*
G01*
X52900000Y-66800000D02*
X52900000Y-67200000D01*
G75*
G02*
X52700000Y-67400000I-200000J0D01*
G01*
X50300000Y-67400000D01*
G75*
G02*
X50100000Y-67200000I0J200000D01*
G01*
X50100000Y-66800000D01*
G75*
G02*
X50300000Y-66600000I200000J0D01*
G01*
X52700000Y-66600000D01*
G75*
G02*
X52900000Y-66800000I0J-200000D01*
G01*
G37*
G36*
G01*
X52900000Y-67800000D02*
X52900000Y-68200000D01*
G75*
G02*
X52700000Y-68400000I-200000J0D01*
G01*
X50300000Y-68400000D01*
G75*
G02*
X50100000Y-68200000I0J200000D01*
G01*
X50100000Y-67800000D01*
G75*
G02*
X50300000Y-67600000I200000J0D01*
G01*
X52700000Y-67600000D01*
G75*
G02*
X52900000Y-67800000I0J-200000D01*
G01*
G37*
G36*
G01*
X52900000Y-68800000D02*
X52900000Y-69200000D01*
G75*
G02*
X52700000Y-69400000I-200000J0D01*
G01*
X50300000Y-69400000D01*
G75*
G02*
X50100000Y-69200000I0J200000D01*
G01*
X50100000Y-68800000D01*
G75*
G02*
X50300000Y-68600000I200000J0D01*
G01*
X52700000Y-68600000D01*
G75*
G02*
X52900000Y-68800000I0J-200000D01*
G01*
G37*
G36*
G01*
X52900000Y-69800000D02*
X52900000Y-70200000D01*
G75*
G02*
X52700000Y-70400000I-200000J0D01*
G01*
X50300000Y-70400000D01*
G75*
G02*
X50100000Y-70200000I0J200000D01*
G01*
X50100000Y-69800000D01*
G75*
G02*
X50300000Y-69600000I200000J0D01*
G01*
X52700000Y-69600000D01*
G75*
G02*
X52900000Y-69800000I0J-200000D01*
G01*
G37*
G36*
G01*
X52900000Y-70800000D02*
X52900000Y-71200000D01*
G75*
G02*
X52700000Y-71400000I-200000J0D01*
G01*
X50300000Y-71400000D01*
G75*
G02*
X50100000Y-71200000I0J200000D01*
G01*
X50100000Y-70800000D01*
G75*
G02*
X50300000Y-70600000I200000J0D01*
G01*
X52700000Y-70600000D01*
G75*
G02*
X52900000Y-70800000I0J-200000D01*
G01*
G37*
G36*
G01*
X52900000Y-71800000D02*
X52900000Y-72200000D01*
G75*
G02*
X52700000Y-72400000I-200000J0D01*
G01*
X50300000Y-72400000D01*
G75*
G02*
X50100000Y-72200000I0J200000D01*
G01*
X50100000Y-71800000D01*
G75*
G02*
X50300000Y-71600000I200000J0D01*
G01*
X52700000Y-71600000D01*
G75*
G02*
X52900000Y-71800000I0J-200000D01*
G01*
G37*
G36*
G01*
X52900000Y-72800000D02*
X52900000Y-73200000D01*
G75*
G02*
X52700000Y-73400000I-200000J0D01*
G01*
X50300000Y-73400000D01*
G75*
G02*
X50100000Y-73200000I0J200000D01*
G01*
X50100000Y-72800000D01*
G75*
G02*
X50300000Y-72600000I200000J0D01*
G01*
X52700000Y-72600000D01*
G75*
G02*
X52900000Y-72800000I0J-200000D01*
G01*
G37*
G36*
G01*
X52900000Y-73800000D02*
X52900000Y-74200000D01*
G75*
G02*
X52700000Y-74400000I-200000J0D01*
G01*
X50300000Y-74400000D01*
G75*
G02*
X50100000Y-74200000I0J200000D01*
G01*
X50100000Y-73800000D01*
G75*
G02*
X50300000Y-73600000I200000J0D01*
G01*
X52700000Y-73600000D01*
G75*
G02*
X52900000Y-73800000I0J-200000D01*
G01*
G37*
%TD*%
%TO.C,J1*%
G36*
G01*
X143450000Y-92170000D02*
X143450000Y-91270000D01*
G75*
G02*
X143900000Y-90820000I450000J0D01*
G01*
X149100000Y-90820000D01*
G75*
G02*
X149550000Y-91270000I0J-450000D01*
G01*
X149550000Y-92170000D01*
G75*
G02*
X149100000Y-92620000I-450000J0D01*
G01*
X143900000Y-92620000D01*
G75*
G02*
X143450000Y-92170000I0J450000D01*
G01*
G37*
G36*
G01*
X143450000Y-89630000D02*
X143450000Y-88730000D01*
G75*
G02*
X143900000Y-88280000I450000J0D01*
G01*
X149100000Y-88280000D01*
G75*
G02*
X149550000Y-88730000I0J-450000D01*
G01*
X149550000Y-89630000D01*
G75*
G02*
X149100000Y-90080000I-450000J0D01*
G01*
X143900000Y-90080000D01*
G75*
G02*
X143450000Y-89630000I0J450000D01*
G01*
G37*
G36*
G01*
X143450000Y-87090000D02*
X143450000Y-86190000D01*
G75*
G02*
X143900000Y-85740000I450000J0D01*
G01*
X149100000Y-85740000D01*
G75*
G02*
X149550000Y-86190000I0J-450000D01*
G01*
X149550000Y-87090000D01*
G75*
G02*
X149100000Y-87540000I-450000J0D01*
G01*
X143900000Y-87540000D01*
G75*
G02*
X143450000Y-87090000I0J450000D01*
G01*
G37*
G36*
G01*
X143450000Y-84550000D02*
X143450000Y-83650000D01*
G75*
G02*
X143900000Y-83200000I450000J0D01*
G01*
X149100000Y-83200000D01*
G75*
G02*
X149550000Y-83650000I0J-450000D01*
G01*
X149550000Y-84550000D01*
G75*
G02*
X149100000Y-85000000I-450000J0D01*
G01*
X143900000Y-85000000D01*
G75*
G02*
X143450000Y-84550000I0J450000D01*
G01*
G37*
G36*
G01*
X143450000Y-82010000D02*
X143450000Y-81110000D01*
G75*
G02*
X143900000Y-80660000I450000J0D01*
G01*
X149100000Y-80660000D01*
G75*
G02*
X149550000Y-81110000I0J-450000D01*
G01*
X149550000Y-82010000D01*
G75*
G02*
X149100000Y-82460000I-450000J0D01*
G01*
X143900000Y-82460000D01*
G75*
G02*
X143450000Y-82010000I0J450000D01*
G01*
G37*
G36*
G01*
X143450000Y-79470000D02*
X143450000Y-78570000D01*
G75*
G02*
X143900000Y-78120000I450000J0D01*
G01*
X149100000Y-78120000D01*
G75*
G02*
X149550000Y-78570000I0J-450000D01*
G01*
X149550000Y-79470000D01*
G75*
G02*
X149100000Y-79920000I-450000J0D01*
G01*
X143900000Y-79920000D01*
G75*
G02*
X143450000Y-79470000I0J450000D01*
G01*
G37*
G36*
G01*
X143450000Y-76930000D02*
X143450000Y-76030000D01*
G75*
G02*
X143900000Y-75580000I450000J0D01*
G01*
X149100000Y-75580000D01*
G75*
G02*
X149550000Y-76030000I0J-450000D01*
G01*
X149550000Y-76930000D01*
G75*
G02*
X149100000Y-77380000I-450000J0D01*
G01*
X143900000Y-77380000D01*
G75*
G02*
X143450000Y-76930000I0J450000D01*
G01*
G37*
G36*
G01*
X143450000Y-74390000D02*
X143450000Y-73490000D01*
G75*
G02*
X143900000Y-73040000I450000J0D01*
G01*
X149100000Y-73040000D01*
G75*
G02*
X149550000Y-73490000I0J-450000D01*
G01*
X149550000Y-74390000D01*
G75*
G02*
X149100000Y-74840000I-450000J0D01*
G01*
X143900000Y-74840000D01*
G75*
G02*
X143450000Y-74390000I0J450000D01*
G01*
G37*
G36*
G01*
X143450000Y-71850000D02*
X143450000Y-70950000D01*
G75*
G02*
X143900000Y-70500000I450000J0D01*
G01*
X149100000Y-70500000D01*
G75*
G02*
X149550000Y-70950000I0J-450000D01*
G01*
X149550000Y-71850000D01*
G75*
G02*
X149100000Y-72300000I-450000J0D01*
G01*
X143900000Y-72300000D01*
G75*
G02*
X143450000Y-71850000I0J450000D01*
G01*
G37*
G36*
G01*
X143450000Y-69310000D02*
X143450000Y-68410000D01*
G75*
G02*
X143900000Y-67960000I450000J0D01*
G01*
X149100000Y-67960000D01*
G75*
G02*
X149550000Y-68410000I0J-450000D01*
G01*
X149550000Y-69310000D01*
G75*
G02*
X149100000Y-69760000I-450000J0D01*
G01*
X143900000Y-69760000D01*
G75*
G02*
X143450000Y-69310000I0J450000D01*
G01*
G37*
G36*
G01*
X143450000Y-66770000D02*
X143450000Y-65870000D01*
G75*
G02*
X143900000Y-65420000I450000J0D01*
G01*
X149100000Y-65420000D01*
G75*
G02*
X149550000Y-65870000I0J-450000D01*
G01*
X149550000Y-66770000D01*
G75*
G02*
X149100000Y-67220000I-450000J0D01*
G01*
X143900000Y-67220000D01*
G75*
G02*
X143450000Y-66770000I0J450000D01*
G01*
G37*
G36*
G01*
X143450000Y-64230000D02*
X143450000Y-63330000D01*
G75*
G02*
X143900000Y-62880000I450000J0D01*
G01*
X149100000Y-62880000D01*
G75*
G02*
X149550000Y-63330000I0J-450000D01*
G01*
X149550000Y-64230000D01*
G75*
G02*
X149100000Y-64680000I-450000J0D01*
G01*
X143900000Y-64680000D01*
G75*
G02*
X143450000Y-64230000I0J450000D01*
G01*
G37*
G36*
G01*
X143450000Y-61690000D02*
X143450000Y-60790000D01*
G75*
G02*
X143900000Y-60340000I450000J0D01*
G01*
X149100000Y-60340000D01*
G75*
G02*
X149550000Y-60790000I0J-450000D01*
G01*
X149550000Y-61690000D01*
G75*
G02*
X149100000Y-62140000I-450000J0D01*
G01*
X143900000Y-62140000D01*
G75*
G02*
X143450000Y-61690000I0J450000D01*
G01*
G37*
G36*
G01*
X143450000Y-59150000D02*
X143450000Y-58250000D01*
G75*
G02*
X143900000Y-57800000I450000J0D01*
G01*
X149100000Y-57800000D01*
G75*
G02*
X149550000Y-58250000I0J-450000D01*
G01*
X149550000Y-59150000D01*
G75*
G02*
X149100000Y-59600000I-450000J0D01*
G01*
X143900000Y-59600000D01*
G75*
G02*
X143450000Y-59150000I0J450000D01*
G01*
G37*
G36*
G01*
X143450000Y-56610000D02*
X143450000Y-55710000D01*
G75*
G02*
X143900000Y-55260000I450000J0D01*
G01*
X149100000Y-55260000D01*
G75*
G02*
X149550000Y-55710000I0J-450000D01*
G01*
X149550000Y-56610000D01*
G75*
G02*
X149100000Y-57060000I-450000J0D01*
G01*
X143900000Y-57060000D01*
G75*
G02*
X143450000Y-56610000I0J450000D01*
G01*
G37*
G36*
G01*
X143450000Y-54070000D02*
X143450000Y-53170000D01*
G75*
G02*
X143900000Y-52720000I450000J0D01*
G01*
X149100000Y-52720000D01*
G75*
G02*
X149550000Y-53170000I0J-450000D01*
G01*
X149550000Y-54070000D01*
G75*
G02*
X149100000Y-54520000I-450000J0D01*
G01*
X143900000Y-54520000D01*
G75*
G02*
X143450000Y-54070000I0J450000D01*
G01*
G37*
G36*
G01*
X143450000Y-51530000D02*
X143450000Y-50630000D01*
G75*
G02*
X143900000Y-50180000I450000J0D01*
G01*
X149100000Y-50180000D01*
G75*
G02*
X149550000Y-50630000I0J-450000D01*
G01*
X149550000Y-51530000D01*
G75*
G02*
X149100000Y-51980000I-450000J0D01*
G01*
X143900000Y-51980000D01*
G75*
G02*
X143450000Y-51530000I0J450000D01*
G01*
G37*
G36*
G01*
X143450000Y-48990000D02*
X143450000Y-48090000D01*
G75*
G02*
X143900000Y-47640000I450000J0D01*
G01*
X149100000Y-47640000D01*
G75*
G02*
X149550000Y-48090000I0J-450000D01*
G01*
X149550000Y-48990000D01*
G75*
G02*
X149100000Y-49440000I-450000J0D01*
G01*
X143900000Y-49440000D01*
G75*
G02*
X143450000Y-48990000I0J450000D01*
G01*
G37*
G36*
G01*
X143450000Y-46450000D02*
X143450000Y-45550000D01*
G75*
G02*
X143900000Y-45100000I450000J0D01*
G01*
X149100000Y-45100000D01*
G75*
G02*
X149550000Y-45550000I0J-450000D01*
G01*
X149550000Y-46450000D01*
G75*
G02*
X149100000Y-46900000I-450000J0D01*
G01*
X143900000Y-46900000D01*
G75*
G02*
X143450000Y-46450000I0J450000D01*
G01*
G37*
G36*
G01*
X143450000Y-43910000D02*
X143450000Y-43010000D01*
G75*
G02*
X143900000Y-42560000I450000J0D01*
G01*
X149100000Y-42560000D01*
G75*
G02*
X149550000Y-43010000I0J-450000D01*
G01*
X149550000Y-43910000D01*
G75*
G02*
X149100000Y-44360000I-450000J0D01*
G01*
X143900000Y-44360000D01*
G75*
G02*
X143450000Y-43910000I0J450000D01*
G01*
G37*
G36*
G01*
X143450000Y-41370000D02*
X143450000Y-40470000D01*
G75*
G02*
X143900000Y-40020000I450000J0D01*
G01*
X149100000Y-40020000D01*
G75*
G02*
X149550000Y-40470000I0J-450000D01*
G01*
X149550000Y-41370000D01*
G75*
G02*
X149100000Y-41820000I-450000J0D01*
G01*
X143900000Y-41820000D01*
G75*
G02*
X143450000Y-41370000I0J450000D01*
G01*
G37*
G36*
G01*
X143450000Y-38830000D02*
X143450000Y-37930000D01*
G75*
G02*
X143900000Y-37480000I450000J0D01*
G01*
X149100000Y-37480000D01*
G75*
G02*
X149550000Y-37930000I0J-450000D01*
G01*
X149550000Y-38830000D01*
G75*
G02*
X149100000Y-39280000I-450000J0D01*
G01*
X143900000Y-39280000D01*
G75*
G02*
X143450000Y-38830000I0J450000D01*
G01*
G37*
G36*
G01*
X143450000Y-36290000D02*
X143450000Y-35390000D01*
G75*
G02*
X143900000Y-34940000I450000J0D01*
G01*
X149100000Y-34940000D01*
G75*
G02*
X149550000Y-35390000I0J-450000D01*
G01*
X149550000Y-36290000D01*
G75*
G02*
X149100000Y-36740000I-450000J0D01*
G01*
X143900000Y-36740000D01*
G75*
G02*
X143450000Y-36290000I0J450000D01*
G01*
G37*
G36*
G01*
X143450000Y-33750000D02*
X143450000Y-32850000D01*
G75*
G02*
X143900000Y-32400000I450000J0D01*
G01*
X149100000Y-32400000D01*
G75*
G02*
X149550000Y-32850000I0J-450000D01*
G01*
X149550000Y-33750000D01*
G75*
G02*
X149100000Y-34200000I-450000J0D01*
G01*
X143900000Y-34200000D01*
G75*
G02*
X143450000Y-33750000I0J450000D01*
G01*
G37*
%TD*%
M02*
