M48
; DRILL file {KiCad 5.1.6-c6e7f7d~86~ubuntu18.04.1} date Wed May 27 13:00:28 2020
; FORMAT={-:-/ absolute / inch / decimal}
; #@! TF.CreationDate,2020-05-27T13:00:28-07:00
; #@! TF.GenerationSoftware,Kicad,Pcbnew,5.1.6-c6e7f7d~86~ubuntu18.04.1
FMAT,2
INCH
T1C0.0157
T2C0.0591
T3C0.0669
T4C0.1181
T5C0.1201
T6C0.1575
%
G90
G05
T1
X0.9646Y-3.1496
X6.0827Y-3.248
X6.3976Y-1.752
X10.1378Y-2.0866
X10.1772Y-1.4173
X10.1969Y-1.6339
X10.315Y-1.6339
X10.3346Y-3.189
X10.374Y-1.2402
X10.5709Y-1.752
X10.748Y-2.4016
X11.0236Y-2.3622
X11.437Y-2.0079
X11.437Y-2.8543
X11.4764Y-1.9685
X11.4764Y-2.8937
X11.5157Y-1.9291
X11.5157Y-2.7165
X13.1496Y-2.6949
X13.3071Y-2.2638
X13.3268Y-2.1457
X13.3858Y-1.378
X13.3858Y-2.6969
X13.4252Y-1.3583
X13.4252Y-2.7362
T2
X1.5375Y-2.1812
X1.7875Y-2.0812
X6.0375Y-2.1812
X6.2875Y-2.0812
X9.0375Y-2.1812
X9.2875Y-2.0812
X8.475Y-0.6813
X8.725Y-0.5812
X12.5097Y-0.6813
X12.7597Y-0.5812
X5.85Y-1.4312
X6.1Y-1.3313
X9.6Y-1.4312
X9.85Y-1.3313
X12.5097Y-1.4312
X12.7597Y-1.3313
X2.85Y-1.4312
X3.1Y-1.3313
X8.6625Y-2.9312
X8.9125Y-2.8312
X0.225Y-0.6813
X0.475Y-0.5812
X12.5097Y-2.9312
X12.7597Y-2.8312
X5.475Y-0.6813
X5.725Y-0.5812
X0.5062Y-2.1812
X0.7562Y-2.0812
X4.9125Y-2.9312
X5.1625Y-2.8312
X6.6Y-1.4312
X6.85Y-1.3313
X12.5097Y-2.1812
X12.7597Y-2.0812
X2.2875Y-2.1812
X2.5375Y-2.0812
X0.4125Y-1.4312
X0.6625Y-1.3313
X8.2562Y-3.6812
X8.5062Y-3.5812
X7.1625Y-2.9312
X7.4125Y-2.8312
X3.975Y-0.6813
X4.225Y-0.5812
X3.225Y-0.6813
X3.475Y-0.5812
X2.6625Y-2.9312
X2.9125Y-2.8312
X3.6Y-1.4312
X3.85Y-1.3313
X9.225Y-0.6813
X9.475Y-0.5812
X3.4125Y-2.9312
X3.6625Y-2.8312
X5.2875Y-2.1812
X5.5375Y-2.0812
X8.85Y-1.4312
X9.1Y-1.3313
X7.35Y-1.4312
X7.6Y-1.3313
X10.5375Y-1.4312
X10.7875Y-1.3313
X6.225Y-0.6813
X6.475Y-0.5812
X12.5097Y-3.6812
X12.7597Y-3.5812
X7.5375Y-2.1812
X7.7875Y-2.0812
X10.2562Y-2.1812
X10.5062Y-2.0812
X0.975Y-0.6813
X1.225Y-0.5812
X5.4437Y-3.6812
X5.6937Y-3.5812
X2.6313Y-3.6812
X2.8813Y-3.5812
X10.0687Y-2.9312
X10.3187Y-2.8312
X1.9125Y-2.9312
X2.1625Y-2.8312
X8.1Y-1.4312
X8.35Y-1.3313
X6.7875Y-2.1812
X7.0375Y-2.0812
X4.35Y-1.4312
X4.6Y-1.3313
X1.35Y-1.4312
X1.6Y-1.3313
X4.5375Y-2.1812
X4.7875Y-2.0812
X6.975Y-0.6813
X7.225Y-0.5812
X4.725Y-0.6813
X4.975Y-0.5812
X4.1625Y-2.9312
X4.4125Y-2.8312
X3.0375Y-2.1812
X3.2875Y-2.0812
X6.4125Y-2.9312
X6.6625Y-2.8312
X2.1Y-1.4312
X2.35Y-1.3313
X7.9125Y-2.9312
X8.1625Y-2.8312
X5.1Y-1.4312
X5.35Y-1.3313
X10.35Y-0.6813
X10.6Y-0.5812
X3.7875Y-2.1812
X4.0375Y-2.0812
X0.6937Y-2.9312
X0.9437Y-2.8312
X7.725Y-0.6813
X7.975Y-0.5812
X8.2875Y-2.1812
X8.5375Y-2.0812
X5.6625Y-2.9312
X5.9125Y-2.8312
X2.475Y-0.6813
X2.725Y-0.5812
X1.725Y-0.6813
X1.975Y-0.5812
T3
X6.3625Y-3.0312
X6.7625Y-3.0312
X2.05Y-1.5312
X2.45Y-1.5312
X7.8625Y-3.0312
X8.2625Y-3.0312
X5.05Y-1.5312
X5.45Y-1.5312
X10.3Y-0.7812
X10.7Y-0.7812
X3.7375Y-2.2812
X4.1375Y-2.2812
X0.6437Y-3.0312
X1.0437Y-3.0312
X7.675Y-0.7812
X8.075Y-0.7812
X8.2375Y-2.2812
X8.6375Y-2.2812
X5.6125Y-3.0312
X6.0125Y-3.0312
X2.425Y-0.7812
X2.825Y-0.7812
X1.675Y-0.7812
X2.075Y-0.7812
X1.4875Y-2.2812
X1.8875Y-2.2812
X5.9875Y-2.2812
X6.3875Y-2.2812
X8.9875Y-2.2812
X9.3875Y-2.2812
X8.425Y-0.7812
X8.825Y-0.7812
X12.4597Y-0.7812
X12.8597Y-0.7812
X5.8Y-1.5312
X6.2Y-1.5312
X9.55Y-1.5312
X9.95Y-1.5312
X12.4597Y-1.5312
X12.8597Y-1.5312
X2.8Y-1.5312
X3.2Y-1.5312
X8.6125Y-3.0312
X9.0125Y-3.0312
X0.175Y-0.7812
X0.575Y-0.7812
X12.4597Y-3.0312
X12.8597Y-3.0312
X5.425Y-0.7812
X5.825Y-0.7812
X0.4562Y-2.2812
X0.8562Y-2.2812
X4.8625Y-3.0312
X5.2625Y-3.0312
X6.55Y-1.5312
X6.95Y-1.5312
X12.4597Y-2.2812
X12.8597Y-2.2812
X2.2375Y-2.2812
X2.6375Y-2.2812
X0.3625Y-1.5312
X0.7625Y-1.5312
X8.2062Y-3.7812
X8.6062Y-3.7812
X7.1125Y-3.0312
X7.5125Y-3.0312
X3.925Y-0.7812
X4.325Y-0.7812
X3.175Y-0.7812
X3.575Y-0.7812
X2.6125Y-3.0312
X3.0125Y-3.0312
X3.55Y-1.5312
X3.95Y-1.5312
X9.175Y-0.7812
X9.575Y-0.7812
X3.3625Y-3.0312
X3.7625Y-3.0312
X5.2375Y-2.2812
X5.6375Y-2.2812
X8.8Y-1.5312
X9.2Y-1.5312
X7.3Y-1.5312
X7.7Y-1.5312
X10.4875Y-1.5312
X10.8875Y-1.5312
X6.175Y-0.7812
X6.575Y-0.7812
X12.4597Y-3.7812
X12.8597Y-3.7812
X7.4875Y-2.2812
X7.8875Y-2.2812
X10.2062Y-2.2812
X10.6062Y-2.2812
X0.925Y-0.7812
X1.325Y-0.7812
X5.3937Y-3.7812
X5.7938Y-3.7812
X2.5812Y-3.7812
X2.9812Y-3.7812
X10.0187Y-3.0312
X10.4187Y-3.0312
X1.8625Y-3.0312
X2.2625Y-3.0312
X8.05Y-1.5312
X8.45Y-1.5312
X6.7375Y-2.2812
X7.1375Y-2.2812
X4.3Y-1.5312
X4.7Y-1.5312
X1.3Y-1.5312
X1.7Y-1.5312
X4.4875Y-2.2812
X4.8875Y-2.2812
X6.925Y-0.7812
X7.325Y-0.7812
X4.675Y-0.7812
X5.075Y-0.7812
X4.1125Y-3.0312
X4.5125Y-3.0312
X2.9875Y-2.2812
X3.3875Y-2.2812
T4
X5.9596Y-3.4744
X11.3681Y-0.4626
X0.748Y-0.4626
X11.2648Y-1.9734
T5
X9.9377Y-2.0057
X10.8748Y-2.0057
X3.6252Y-3.5057
X7.5623Y-3.5057
X9.7502Y-2.7557
X10.6873Y-2.7557
X10.0315Y-0.5057
X10.9685Y-0.5057
X0.3752Y-2.7557
X1.3123Y-2.7557
T6
X0.5625Y-1.5312
X8.4062Y-3.7812
X7.3125Y-3.0312
X4.125Y-0.7812
X3.375Y-0.7812
X2.8125Y-3.0312
X3.75Y-1.5312
X9.375Y-0.7812
X3.5625Y-3.0312
X5.4375Y-2.2812
X9.0Y-1.5312
X7.5Y-1.5312
X10.6875Y-1.5312
X6.375Y-0.7812
X12.6597Y-3.7812
X7.6875Y-2.2812
X9.9377Y-2.6057
X10.4062Y-2.2812
X10.8748Y-2.6057
X1.125Y-0.7812
X3.6252Y-4.1057
X5.5938Y-3.7812
X7.5623Y-4.1057
X2.7812Y-3.7812
X9.7502Y-3.3557
X10.2188Y-3.0312
X10.6873Y-3.3557
X2.0625Y-3.0312
X8.25Y-1.5312
X6.9375Y-2.2812
X4.5Y-1.5312
X1.5Y-1.5312
X4.6875Y-2.2812
X7.125Y-0.7812
X4.875Y-0.7812
X4.3125Y-3.0312
X3.1875Y-2.2812
X6.5625Y-3.0312
X2.25Y-1.5312
X8.0625Y-3.0312
X5.25Y-1.5312
X10.0315Y-1.1057
X10.5Y-0.7812
X10.9685Y-1.1057
X3.9375Y-2.2812
X0.3752Y-3.3557
X0.8438Y-3.0312
X1.3123Y-3.3557
X7.875Y-0.7812
X8.4375Y-2.2812
X5.8125Y-3.0312
X2.625Y-0.7812
X1.875Y-0.7812
X1.6875Y-2.2812
X6.1875Y-2.2812
X9.1875Y-2.2812
X8.625Y-0.7812
X12.6597Y-0.7812
X6.0Y-1.5312
X9.75Y-1.5312
X12.6597Y-1.5312
X3.0Y-1.5312
X8.8125Y-3.0312
X0.375Y-0.7812
X12.6597Y-3.0312
X5.625Y-0.7812
X0.6562Y-2.2812
X5.0625Y-3.0312
X6.75Y-1.5312
X12.6597Y-2.2812
X2.4375Y-2.2812
T0
M30
