G04 #@! TF.GenerationSoftware,KiCad,Pcbnew,5.1.6-c6e7f7d~86~ubuntu18.04.1*
G04 #@! TF.CreationDate,2020-05-27T13:00:31-07:00*
G04 #@! TF.ProjectId,kbd800xl,6b626438-3030-4786-9c2e-6b696361645f,1.0*
G04 #@! TF.SameCoordinates,Original*
G04 #@! TF.FileFunction,Copper,L1,Top*
G04 #@! TF.FilePolarity,Positive*
%FSLAX46Y46*%
G04 Gerber Fmt 4.6, Leading zero omitted, Abs format (unit mm)*
G04 Created by KiCad (PCBNEW 5.1.6-c6e7f7d~86~ubuntu18.04.1) date 2020-05-27 13:00:31*
%MOMM*%
%LPD*%
G01*
G04 APERTURE LIST*
G04 #@! TA.AperFunction,ComponentPad*
%ADD10C,2.200000*%
G04 #@! TD*
G04 #@! TA.AperFunction,SMDPad,CuDef*
%ADD11R,3.600000X2.680000*%
G04 #@! TD*
G04 #@! TA.AperFunction,SMDPad,CuDef*
%ADD12R,2.000000X0.610000*%
G04 #@! TD*
G04 #@! TA.AperFunction,ViaPad*
%ADD13C,0.800000*%
G04 #@! TD*
G04 #@! TA.AperFunction,Conductor*
%ADD14C,0.250000*%
G04 #@! TD*
G04 APERTURE END LIST*
D10*
X143827500Y-74453750D03*
X150177500Y-71913750D03*
X260508750Y-55403750D03*
X266858750Y-52863750D03*
X255746250Y-74453750D03*
X262096250Y-71913750D03*
X17621250Y-74453750D03*
X23971250Y-71913750D03*
X267652500Y-36353750D03*
X274002500Y-33813750D03*
X262890000Y-17303750D03*
X269240000Y-14763750D03*
X317746250Y-55403750D03*
X324096250Y-52863750D03*
D11*
X339000000Y-44510000D03*
X339000000Y-73490000D03*
D12*
X336200000Y-47500000D03*
X336200000Y-48500000D03*
X336200000Y-49500000D03*
X336200000Y-50500000D03*
X336200000Y-51500000D03*
X336200000Y-52500000D03*
X336200000Y-53500000D03*
X336200000Y-54500000D03*
X336200000Y-55500000D03*
X336200000Y-56500000D03*
X336200000Y-57500000D03*
X336200000Y-58500000D03*
X336200000Y-59500000D03*
X336200000Y-60500000D03*
X336200000Y-61500000D03*
X336200000Y-62500000D03*
X336200000Y-63500000D03*
X336200000Y-64500000D03*
X336200000Y-65500000D03*
X336200000Y-66500000D03*
X336200000Y-67500000D03*
X336200000Y-68500000D03*
X336200000Y-69500000D03*
X336200000Y-70500000D03*
D10*
X317746250Y-93503750D03*
X324096250Y-90963750D03*
X317746250Y-74453750D03*
X324096250Y-71913750D03*
X317746250Y-36353750D03*
X324096250Y-33813750D03*
X317746250Y-17303750D03*
X324096250Y-14763750D03*
X209708750Y-93503750D03*
X216058750Y-90963750D03*
X66833750Y-93503750D03*
X73183750Y-90963750D03*
X138271250Y-93503750D03*
X144621250Y-90963750D03*
X220027500Y-74453750D03*
X226377500Y-71913750D03*
X200977500Y-74453750D03*
X207327500Y-71913750D03*
X181927500Y-74453750D03*
X188277500Y-71913750D03*
X162877500Y-74453750D03*
X169227500Y-71913750D03*
X124777500Y-74453750D03*
X131127500Y-71913750D03*
X105727500Y-74453750D03*
X112077500Y-71913750D03*
X86677500Y-74453750D03*
X93027500Y-71913750D03*
X67627500Y-74453750D03*
X73977500Y-71913750D03*
X48577500Y-74453750D03*
X54927500Y-71913750D03*
X229552500Y-55403750D03*
X235902500Y-52863750D03*
X210502500Y-55403750D03*
X216852500Y-52863750D03*
X191452500Y-55403750D03*
X197802500Y-52863750D03*
X172402500Y-55403750D03*
X178752500Y-52863750D03*
X153352500Y-55403750D03*
X159702500Y-52863750D03*
X134302500Y-55403750D03*
X140652500Y-52863750D03*
X115252500Y-55403750D03*
X121602500Y-52863750D03*
X96202500Y-55403750D03*
X102552500Y-52863750D03*
X77152500Y-55403750D03*
X83502500Y-52863750D03*
X58102500Y-55403750D03*
X64452500Y-52863750D03*
X39052500Y-55403750D03*
X45402500Y-52863750D03*
X12858750Y-55403750D03*
X19208750Y-52863750D03*
X10477500Y-36353750D03*
X16827500Y-33813750D03*
X5715000Y-17303750D03*
X12065000Y-14763750D03*
X243840000Y-36353750D03*
X250190000Y-33813750D03*
X224790000Y-36353750D03*
X231140000Y-33813750D03*
X205740000Y-36353750D03*
X212090000Y-33813750D03*
X186690000Y-36353750D03*
X193040000Y-33813750D03*
X167640000Y-36353750D03*
X173990000Y-33813750D03*
X148590000Y-36353750D03*
X154940000Y-33813750D03*
X129540000Y-36353750D03*
X135890000Y-33813750D03*
X110490000Y-36353750D03*
X116840000Y-33813750D03*
X91440000Y-36353750D03*
X97790000Y-33813750D03*
X72390000Y-36353750D03*
X78740000Y-33813750D03*
X53340000Y-36353750D03*
X59690000Y-33813750D03*
X34290000Y-36353750D03*
X40640000Y-33813750D03*
X234315000Y-17303750D03*
X240665000Y-14763750D03*
X215265000Y-17303750D03*
X221615000Y-14763750D03*
X196215000Y-17303750D03*
X202565000Y-14763750D03*
X177165000Y-17303750D03*
X183515000Y-14763750D03*
X158115000Y-17303750D03*
X164465000Y-14763750D03*
X139065000Y-17303750D03*
X145415000Y-14763750D03*
X120015000Y-17303750D03*
X126365000Y-14763750D03*
X100965000Y-17303750D03*
X107315000Y-14763750D03*
X81915000Y-17303750D03*
X88265000Y-14763750D03*
X62865000Y-17303750D03*
X69215000Y-14763750D03*
X43815000Y-17303750D03*
X50165000Y-14763750D03*
X24765000Y-17303750D03*
X31115000Y-14763750D03*
D13*
X154499976Y-82500000D03*
X262000000Y-41500000D03*
X259000000Y-41500000D03*
X258500000Y-36000000D03*
X268500000Y-44500000D03*
X257500000Y-53000000D03*
X338500000Y-54500000D03*
X341000000Y-34500000D03*
X341000000Y-69500000D03*
X340000000Y-35000000D03*
X340000000Y-68500000D03*
X334000000Y-68450000D03*
X338000000Y-57500000D03*
X291499996Y-50000000D03*
X291499996Y-73499996D03*
X292499990Y-49000000D03*
X292500000Y-69000000D03*
X263500000Y-31500000D03*
X273000000Y-61000000D03*
X280000004Y-60000000D03*
X162500000Y-44500000D03*
X24500000Y-80000000D03*
X290500000Y-51000022D03*
X290500000Y-72500014D03*
X262499986Y-81000000D03*
D14*
X6000000Y-17000000D02*
X24461250Y-17000000D01*
X5715000Y-17303750D02*
X5715000Y-17285000D01*
X24461250Y-17000000D02*
X24765000Y-17303750D01*
X5715000Y-17285000D02*
X6000000Y-17000000D01*
X24765000Y-17303750D02*
X24765000Y-17235000D01*
X24765000Y-17235000D02*
X25000000Y-17000000D01*
X43511250Y-17000000D02*
X43815000Y-17303750D01*
X25000000Y-17000000D02*
X43511250Y-17000000D01*
X43815000Y-17303750D02*
X43815000Y-17185000D01*
X43815000Y-17185000D02*
X44000000Y-17000000D01*
X62561250Y-17000000D02*
X62865000Y-17303750D01*
X44000000Y-17000000D02*
X62561250Y-17000000D01*
X62865000Y-17303750D02*
X62865000Y-17135000D01*
X62865000Y-17135000D02*
X63000000Y-17000000D01*
X81611250Y-17000000D02*
X81915000Y-17303750D01*
X63000000Y-17000000D02*
X81611250Y-17000000D01*
X81915000Y-17303750D02*
X81915000Y-17085000D01*
X81915000Y-17085000D02*
X82000000Y-17000000D01*
X100661250Y-17000000D02*
X100965000Y-17303750D01*
X82000000Y-17000000D02*
X100661250Y-17000000D01*
X100965000Y-17303750D02*
X100965000Y-17035000D01*
X100965000Y-17035000D02*
X101000000Y-17000000D01*
X119711250Y-17000000D02*
X120015000Y-17303750D01*
X101000000Y-17000000D02*
X119711250Y-17000000D01*
X120696250Y-17303750D02*
X120015000Y-17303750D01*
X134000000Y-17000000D02*
X121000000Y-17000000D01*
X135000000Y-18000000D02*
X134000000Y-17000000D01*
X135000000Y-22000000D02*
X135000000Y-18000000D01*
X136000000Y-23000000D02*
X135000000Y-22000000D01*
X335000000Y-48500000D02*
X330500000Y-44000000D01*
X287000000Y-23000000D02*
X136000000Y-23000000D01*
X330500000Y-44000000D02*
X291000000Y-44000000D01*
X336200000Y-48500000D02*
X335000000Y-48500000D01*
X121000000Y-17000000D02*
X120696250Y-17303750D01*
X288000000Y-41000000D02*
X288000000Y-24000000D01*
X291000000Y-44000000D02*
X288000000Y-41000000D01*
X288000000Y-24000000D02*
X287000000Y-23000000D01*
X139065000Y-17303750D02*
X139065000Y-17065000D01*
X139130000Y-17000000D02*
X157811250Y-17000000D01*
X157811250Y-17000000D02*
X158115000Y-17303750D01*
X139065000Y-17065000D02*
X139130000Y-17000000D01*
X158115000Y-17303750D02*
X158115000Y-17115000D01*
X158115000Y-17115000D02*
X158230000Y-17000000D01*
X176861250Y-17000000D02*
X177165000Y-17303750D01*
X158230000Y-17000000D02*
X176861250Y-17000000D01*
X177165000Y-17303750D02*
X177165000Y-17165000D01*
X177165000Y-17165000D02*
X177330000Y-17000000D01*
X195911250Y-17000000D02*
X196215000Y-17303750D01*
X177330000Y-17000000D02*
X195911250Y-17000000D01*
X196215000Y-17303750D02*
X196215000Y-17215000D01*
X196215000Y-17215000D02*
X196430000Y-17000000D01*
X214961250Y-17000000D02*
X215265000Y-17303750D01*
X196430000Y-17000000D02*
X214961250Y-17000000D01*
X215265000Y-17303750D02*
X215265000Y-17265000D01*
X215265000Y-17265000D02*
X215530000Y-17000000D01*
X234011250Y-17000000D02*
X234315000Y-17303750D01*
X215530000Y-17000000D02*
X234011250Y-17000000D01*
X234315000Y-17303750D02*
X234696250Y-17303750D01*
X335500000Y-47500000D02*
X331000000Y-43000000D01*
X336200000Y-47500000D02*
X335500000Y-47500000D01*
X289000000Y-40500000D02*
X289000000Y-18000000D01*
X288000000Y-17000000D02*
X263193750Y-17000000D01*
X331000000Y-43000000D02*
X291500000Y-43000000D01*
X291500000Y-43000000D02*
X289000000Y-40500000D01*
X263193750Y-17000000D02*
X262890000Y-17303750D01*
X289000000Y-18000000D02*
X288000000Y-17000000D01*
X234607500Y-17000000D02*
X262586250Y-17000000D01*
X234315000Y-17303750D02*
X234303750Y-17303750D01*
X262586250Y-17000000D02*
X262890000Y-17303750D01*
X234303750Y-17303750D02*
X234607500Y-17000000D01*
X86000000Y-82500000D02*
X154499976Y-82500000D01*
X77500000Y-90500000D02*
X77500000Y-83500000D01*
X66833750Y-93503750D02*
X67337500Y-93000000D01*
X75000000Y-93000000D02*
X77500000Y-90500000D01*
X67337500Y-93000000D02*
X75000000Y-93000000D01*
X77500000Y-83500000D02*
X78500000Y-82500000D01*
X78500000Y-82500000D02*
X86000000Y-82500000D01*
X10477500Y-36353750D02*
X10646250Y-36353750D01*
X10646250Y-36353750D02*
X11000000Y-36000000D01*
X33936250Y-36000000D02*
X34290000Y-36353750D01*
X11000000Y-36000000D02*
X33936250Y-36000000D01*
X34290000Y-36353750D02*
X34290000Y-36210000D01*
X34290000Y-36210000D02*
X34500000Y-36000000D01*
X52986250Y-36000000D02*
X53340000Y-36353750D01*
X34500000Y-36000000D02*
X52986250Y-36000000D01*
X53340000Y-36353750D02*
X53340000Y-36160000D01*
X53340000Y-36160000D02*
X53500000Y-36000000D01*
X72036250Y-36000000D02*
X72390000Y-36353750D01*
X53500000Y-36000000D02*
X72036250Y-36000000D01*
X72390000Y-36353750D02*
X72390000Y-36110000D01*
X72390000Y-36110000D02*
X72500000Y-36000000D01*
X91086250Y-36000000D02*
X91440000Y-36353750D01*
X72500000Y-36000000D02*
X91086250Y-36000000D01*
X91440000Y-36353750D02*
X91440000Y-36060000D01*
X91440000Y-36060000D02*
X91500000Y-36000000D01*
X110136250Y-36000000D02*
X110490000Y-36353750D01*
X91500000Y-36000000D02*
X110136250Y-36000000D01*
X110490000Y-36353750D02*
X110490000Y-36010000D01*
X110490000Y-36010000D02*
X110500000Y-36000000D01*
X129186250Y-36000000D02*
X129540000Y-36353750D01*
X110500000Y-36000000D02*
X129186250Y-36000000D01*
X287500000Y-43500000D02*
X290000000Y-46000000D01*
X265500000Y-43500000D02*
X287500000Y-43500000D01*
X290000000Y-46000000D02*
X329500000Y-46000000D01*
X264500000Y-42500000D02*
X265500000Y-43500000D01*
X140500000Y-41500000D02*
X141500000Y-42500000D01*
X129540000Y-36353750D02*
X129893750Y-36000000D01*
X329500000Y-46000000D02*
X334000000Y-50500000D01*
X129893750Y-36000000D02*
X139500000Y-36000000D01*
X139500000Y-36000000D02*
X140500000Y-37000000D01*
X334000000Y-50500000D02*
X336200000Y-50500000D01*
X140500000Y-37000000D02*
X140500000Y-41500000D01*
X141500000Y-42500000D02*
X264500000Y-42500000D01*
X148590000Y-36353750D02*
X148646250Y-36353750D01*
X148646250Y-36353750D02*
X149000000Y-36000000D01*
X167286250Y-36000000D02*
X167640000Y-36353750D01*
X149000000Y-36000000D02*
X167286250Y-36000000D01*
X186690000Y-36353750D02*
X186690000Y-36190000D01*
X186690000Y-36190000D02*
X186500000Y-36000000D01*
X167993750Y-36000000D02*
X167640000Y-36353750D01*
X186500000Y-36000000D02*
X167993750Y-36000000D01*
X186690000Y-36353750D02*
X186690000Y-36310000D01*
X186690000Y-36310000D02*
X187000000Y-36000000D01*
X205386250Y-36000000D02*
X205740000Y-36353750D01*
X187000000Y-36000000D02*
X205386250Y-36000000D01*
X205740000Y-36353750D02*
X205740000Y-36260000D01*
X205740000Y-36260000D02*
X206000000Y-36000000D01*
X224436250Y-36000000D02*
X224790000Y-36353750D01*
X206000000Y-36000000D02*
X224436250Y-36000000D01*
X224790000Y-36353750D02*
X224790000Y-36210000D01*
X224790000Y-36210000D02*
X225000000Y-36000000D01*
X243486250Y-36000000D02*
X243840000Y-36353750D01*
X225000000Y-36000000D02*
X243486250Y-36000000D01*
X334500000Y-49500000D02*
X336200000Y-49500000D01*
X265000000Y-41500000D02*
X266000000Y-42500000D01*
X262000000Y-41500000D02*
X265000000Y-41500000D01*
X266000000Y-42500000D02*
X288000000Y-42500000D01*
X288000000Y-42500000D02*
X290500000Y-45000000D01*
X290500000Y-45000000D02*
X330000000Y-45000000D01*
X330000000Y-45000000D02*
X334500000Y-49500000D01*
X256000000Y-41500000D02*
X259000000Y-41500000D01*
X255000000Y-37000000D02*
X255000000Y-40500000D01*
X254000000Y-36000000D02*
X255000000Y-37000000D01*
X255000000Y-40500000D02*
X256000000Y-41500000D01*
X243840000Y-36353750D02*
X244193750Y-36000000D01*
X244193750Y-36000000D02*
X254000000Y-36000000D01*
X39052500Y-55403750D02*
X39096250Y-55403750D01*
X39096250Y-55403750D02*
X39500000Y-55000000D01*
X57698750Y-55000000D02*
X58102500Y-55403750D01*
X39500000Y-55000000D02*
X57698750Y-55000000D01*
X58102500Y-55403750D02*
X58102500Y-55102500D01*
X58102500Y-55102500D02*
X58205000Y-55000000D01*
X76748750Y-55000000D02*
X77152500Y-55403750D01*
X58205000Y-55000000D02*
X76748750Y-55000000D01*
X77152500Y-55403750D02*
X77152500Y-55347500D01*
X77152500Y-55347500D02*
X77500000Y-55000000D01*
X95798750Y-55000000D02*
X96202500Y-55403750D01*
X77500000Y-55000000D02*
X95798750Y-55000000D01*
X96202500Y-55403750D02*
X96202500Y-55297500D01*
X96202500Y-55297500D02*
X96500000Y-55000000D01*
X114848750Y-55000000D02*
X115252500Y-55403750D01*
X96500000Y-55000000D02*
X114848750Y-55000000D01*
X115252500Y-55403750D02*
X115252500Y-55247500D01*
X115252500Y-55247500D02*
X115500000Y-55000000D01*
X133898750Y-55000000D02*
X134302500Y-55403750D01*
X115500000Y-55000000D02*
X133898750Y-55000000D01*
X134500000Y-55206250D02*
X134302500Y-55403750D01*
X134500000Y-44500000D02*
X134500000Y-55206250D01*
X135500000Y-43500000D02*
X134500000Y-44500000D01*
X333000000Y-52500000D02*
X328500000Y-48000000D01*
X336200000Y-52500000D02*
X333000000Y-52500000D01*
X328500000Y-48000000D02*
X289000000Y-48000000D01*
X264000000Y-43500000D02*
X135500000Y-43500000D01*
X289000000Y-48000000D02*
X286500000Y-45500000D01*
X286500000Y-45500000D02*
X266000000Y-45500000D01*
X266000000Y-45500000D02*
X264000000Y-43500000D01*
X148000000Y-56000000D02*
X149000000Y-55000000D01*
X148000000Y-60500000D02*
X148000000Y-56000000D01*
X147000000Y-61500000D02*
X148000000Y-60500000D01*
X152948750Y-55000000D02*
X153352500Y-55403750D01*
X149000000Y-55000000D02*
X152948750Y-55000000D01*
X34500000Y-61500000D02*
X147000000Y-61500000D01*
X13096250Y-55403750D02*
X13500000Y-55000000D01*
X12858750Y-55403750D02*
X13096250Y-55403750D01*
X13500000Y-55000000D02*
X32500000Y-55000000D01*
X32500000Y-55000000D02*
X33500000Y-56000000D01*
X33500000Y-56000000D02*
X33500000Y-60500000D01*
X33500000Y-60500000D02*
X34500000Y-61500000D01*
X153352500Y-55403750D02*
X153352500Y-55147500D01*
X153352500Y-55147500D02*
X153500000Y-55000000D01*
X171998750Y-55000000D02*
X172402500Y-55403750D01*
X153500000Y-55000000D02*
X171998750Y-55000000D01*
X172402500Y-55403750D02*
X172402500Y-55097500D01*
X172402500Y-55097500D02*
X172500000Y-55000000D01*
X191048750Y-55000000D02*
X191452500Y-55403750D01*
X172500000Y-55000000D02*
X191048750Y-55000000D01*
X191452500Y-55403750D02*
X191452500Y-55047500D01*
X191452500Y-55047500D02*
X191500000Y-55000000D01*
X210098750Y-55000000D02*
X210502500Y-55403750D01*
X191500000Y-55000000D02*
X210098750Y-55000000D01*
X210502500Y-55403750D02*
X210502500Y-55002500D01*
X210502500Y-55002500D02*
X210505000Y-55000000D01*
X229148750Y-55000000D02*
X229552500Y-55403750D01*
X210505000Y-55000000D02*
X229148750Y-55000000D01*
X229605000Y-55000000D02*
X247000000Y-55000000D01*
X229552500Y-55403750D02*
X229552500Y-55052500D01*
X229552500Y-55052500D02*
X229605000Y-55000000D01*
X267298750Y-36000000D02*
X267652500Y-36353750D01*
X258500000Y-36000000D02*
X267298750Y-36000000D01*
X289500000Y-47000000D02*
X287000000Y-44500000D01*
X333500000Y-51500000D02*
X329000000Y-47000000D01*
X287000000Y-44500000D02*
X268500000Y-44500000D01*
X329000000Y-47000000D02*
X289500000Y-47000000D01*
X336200000Y-51500000D02*
X333500000Y-51500000D01*
X247000000Y-55000000D02*
X249000000Y-55000000D01*
X249000000Y-55000000D02*
X249500000Y-55500000D01*
X249500000Y-55500000D02*
X255000000Y-55500000D01*
X255000000Y-55500000D02*
X257500000Y-53000000D01*
X338500000Y-54500000D02*
X336200000Y-54500000D01*
X336200000Y-69500000D02*
X341000000Y-69500000D01*
X336200000Y-68500000D02*
X340000000Y-68500000D01*
X334950000Y-67500000D02*
X334000000Y-68450000D01*
X336200000Y-67500000D02*
X334950000Y-67500000D01*
X240665000Y-14763750D02*
X240665000Y-13165000D01*
X240665000Y-13165000D02*
X240000000Y-12500000D01*
X240000000Y-12500000D02*
X32000000Y-12500000D01*
X31115000Y-13385000D02*
X31115000Y-14763750D01*
X32000000Y-12500000D02*
X31115000Y-13385000D01*
X140652500Y-52863750D02*
X159702500Y-52863750D01*
X338000000Y-57500000D02*
X336200000Y-57500000D01*
X216500000Y-90522500D02*
X216058750Y-90963750D01*
X73000000Y-90780000D02*
X73183750Y-90963750D01*
X124777500Y-74453750D02*
X124453750Y-74453750D01*
X124453750Y-74453750D02*
X124000000Y-74000000D01*
X106181250Y-74000000D02*
X105727500Y-74453750D01*
X124000000Y-74000000D02*
X106181250Y-74000000D01*
X105727500Y-74453750D02*
X105453750Y-74453750D01*
X105453750Y-74453750D02*
X105000000Y-74000000D01*
X87131250Y-74000000D02*
X86677500Y-74453750D01*
X105000000Y-74000000D02*
X87131250Y-74000000D01*
X86677500Y-74453750D02*
X86453750Y-74453750D01*
X86453750Y-74453750D02*
X86000000Y-74000000D01*
X68081250Y-74000000D02*
X67627500Y-74453750D01*
X86000000Y-74000000D02*
X68081250Y-74000000D01*
X67627500Y-74453750D02*
X67453750Y-74453750D01*
X67453750Y-74453750D02*
X67000000Y-74000000D01*
X49031250Y-74000000D02*
X48577500Y-74453750D01*
X67000000Y-74000000D02*
X49031250Y-74000000D01*
X48577500Y-74453750D02*
X48453750Y-74453750D01*
X48453750Y-74453750D02*
X48000000Y-74000000D01*
X18075000Y-74000000D02*
X17621250Y-74453750D01*
X48000000Y-74000000D02*
X18075000Y-74000000D01*
X332000000Y-54500000D02*
X327500000Y-50000000D01*
X327500000Y-50000000D02*
X291499996Y-50000000D01*
X336200000Y-54500000D02*
X332000000Y-54500000D01*
X291499996Y-73500004D02*
X291499996Y-73499996D01*
X291000000Y-74000000D02*
X291499996Y-73500004D01*
X256500000Y-74000000D02*
X291000000Y-74000000D01*
X256046250Y-74453750D02*
X256500000Y-74000000D01*
X255746250Y-74453750D02*
X256046250Y-74453750D01*
X125500000Y-79500000D02*
X126500000Y-80500000D01*
X126500000Y-80500000D02*
X246000000Y-80500000D01*
X255292500Y-74000000D02*
X255746250Y-74453750D01*
X125500000Y-75176250D02*
X125500000Y-79500000D01*
X124777500Y-74453750D02*
X125500000Y-75176250D01*
X246000000Y-80500000D02*
X252500000Y-74000000D01*
X252500000Y-74000000D02*
X255292500Y-74000000D01*
X220027500Y-74453750D02*
X219453750Y-74453750D01*
X201431250Y-74000000D02*
X200977500Y-74453750D01*
X200977500Y-74453750D02*
X200953750Y-74453750D01*
X200953750Y-74453750D02*
X200500000Y-74000000D01*
X182381250Y-74000000D02*
X181927500Y-74453750D01*
X200500000Y-74000000D02*
X182381250Y-74000000D01*
X181927500Y-74453750D02*
X181453750Y-74453750D01*
X181453750Y-74453750D02*
X181000000Y-74000000D01*
X163331250Y-74000000D02*
X162877500Y-74453750D01*
X181000000Y-74000000D02*
X163331250Y-74000000D01*
X162877500Y-74453750D02*
X162877500Y-74377500D01*
X162877500Y-74377500D02*
X162500000Y-74000000D01*
X144281250Y-74000000D02*
X143827500Y-74453750D01*
X162500000Y-74000000D02*
X144281250Y-74000000D01*
X332500000Y-53500000D02*
X328000000Y-49000000D01*
X328000000Y-49000000D02*
X292499990Y-49000000D01*
X336200000Y-53500000D02*
X332500000Y-53500000D01*
X292000000Y-69500000D02*
X292500000Y-69000000D01*
X275000000Y-69500000D02*
X292000000Y-69500000D01*
X272500000Y-67000000D02*
X275000000Y-69500000D01*
X258000000Y-67000000D02*
X272500000Y-67000000D01*
X220027500Y-74453750D02*
X250546250Y-74453750D01*
X250546250Y-74453750D02*
X258000000Y-67000000D01*
X318500000Y-74407500D02*
X318546250Y-74453750D01*
X336200000Y-64500000D02*
X335000000Y-64500000D01*
X318546250Y-74453750D02*
X317746250Y-74453750D01*
X335000000Y-64500000D02*
X331500000Y-68000000D01*
X331500000Y-68000000D02*
X319500000Y-68000000D01*
X319500000Y-68000000D02*
X318500000Y-69000000D01*
X318500000Y-73700000D02*
X317746250Y-74453750D01*
X318500000Y-69000000D02*
X318500000Y-73700000D01*
X338500000Y-32000000D02*
X341000000Y-34500000D01*
X325500000Y-32000000D02*
X338500000Y-32000000D01*
X324500000Y-14763750D02*
X324500000Y-31000000D01*
X324500000Y-31000000D02*
X325500000Y-32000000D01*
X338000000Y-33000000D02*
X340000000Y-35000000D01*
X324096250Y-33813750D02*
X324910000Y-33000000D01*
X324910000Y-33000000D02*
X338000000Y-33000000D01*
X336200000Y-66500000D02*
X334500000Y-66500000D01*
X334500000Y-66500000D02*
X329000000Y-72000000D01*
X324182500Y-72000000D02*
X324096250Y-71913750D01*
X329000000Y-72000000D02*
X324182500Y-72000000D01*
X336200000Y-63270000D02*
X335906411Y-63270000D01*
X269240000Y-14763750D02*
X269240000Y-14240000D01*
X269240000Y-14240000D02*
X269000000Y-14000000D01*
X17013750Y-34000000D02*
X16827500Y-33813750D01*
X19500000Y-34000000D02*
X17013750Y-34000000D01*
X262500000Y-30500000D02*
X21500000Y-30500000D01*
X20500000Y-33000000D02*
X19500000Y-34000000D01*
X20500000Y-31500000D02*
X20500000Y-33000000D01*
X21500000Y-30500000D02*
X20500000Y-31500000D01*
X262500000Y-30500000D02*
X263500000Y-31500000D01*
X280000000Y-61000000D02*
X273000000Y-61000000D01*
X307000000Y-61000000D02*
X279500000Y-61000000D01*
X313000000Y-67000000D02*
X307000000Y-61000000D01*
X336200000Y-63500000D02*
X334500000Y-63500000D01*
X331000000Y-67000000D02*
X313000000Y-67000000D01*
X334500000Y-63500000D02*
X331000000Y-67000000D01*
X269003750Y-15000000D02*
X269240000Y-14763750D01*
X262000000Y-15000000D02*
X269003750Y-15000000D01*
X251500000Y-12500000D02*
X251500000Y-15000000D01*
X250500000Y-11500000D02*
X251500000Y-12500000D01*
X25000000Y-11500000D02*
X250500000Y-11500000D01*
X16000000Y-14500000D02*
X17000000Y-15500000D01*
X21000000Y-15500000D02*
X25000000Y-11500000D01*
X261000000Y-16000000D02*
X262000000Y-15000000D01*
X252500000Y-16000000D02*
X261000000Y-16000000D01*
X251500000Y-15000000D02*
X252500000Y-16000000D01*
X12236250Y-14763750D02*
X12500000Y-14500000D01*
X12065000Y-14763750D02*
X12236250Y-14763750D01*
X12500000Y-14500000D02*
X16000000Y-14500000D01*
X17000000Y-15500000D02*
X21000000Y-15500000D01*
X250190000Y-33813750D02*
X250686250Y-33813750D01*
X250686250Y-33813750D02*
X251000000Y-33500000D01*
X273688750Y-33500000D02*
X274002500Y-33813750D01*
X251000000Y-33500000D02*
X273688750Y-33500000D01*
X307500000Y-60000000D02*
X280000004Y-60000000D01*
X313500000Y-66000000D02*
X307500000Y-60000000D01*
X330500000Y-66000000D02*
X313500000Y-66000000D01*
X336200000Y-62500000D02*
X334000000Y-62500000D01*
X334000000Y-62500000D02*
X330500000Y-66000000D01*
X226500000Y-71791250D02*
X226377500Y-71913750D01*
X226500000Y-67500000D02*
X226500000Y-71791250D01*
X225500000Y-66500000D02*
X226500000Y-67500000D01*
X73977500Y-71913750D02*
X73977500Y-67522500D01*
X75000000Y-66500000D02*
X225500000Y-66500000D01*
X73977500Y-67522500D02*
X75000000Y-66500000D01*
X227477499Y-62022501D02*
X227477499Y-70813751D01*
X227477499Y-70813751D02*
X226377500Y-71913750D01*
X228500000Y-61000000D02*
X227477499Y-62022501D01*
X333500000Y-61500000D02*
X330000000Y-65000000D01*
X269500000Y-61000000D02*
X228500000Y-61000000D01*
X336200000Y-61500000D02*
X333500000Y-61500000D01*
X271500000Y-59000000D02*
X269500000Y-61000000D01*
X314000000Y-65000000D02*
X308000000Y-59000000D01*
X330000000Y-65000000D02*
X314000000Y-65000000D01*
X308000000Y-59000000D02*
X271500000Y-59000000D01*
X207500000Y-71741250D02*
X207327500Y-71913750D01*
X206549989Y-67549989D02*
X207500000Y-68500000D01*
X93950011Y-67549989D02*
X206549989Y-67549989D01*
X93027500Y-71913750D02*
X93027500Y-68472500D01*
X207500000Y-68500000D02*
X207500000Y-71741250D01*
X93027500Y-68472500D02*
X93950011Y-67549989D01*
X329500000Y-64000000D02*
X333000000Y-60500000D01*
X333000000Y-60500000D02*
X336200000Y-60500000D01*
X308500000Y-58000000D02*
X314500000Y-64000000D01*
X277000000Y-58000000D02*
X308500000Y-58000000D01*
X269500000Y-50500000D02*
X277000000Y-58000000D01*
X258500000Y-50500000D02*
X269500000Y-50500000D01*
X254500000Y-54500000D02*
X258500000Y-50500000D01*
X217000000Y-51000000D02*
X217500000Y-50500000D01*
X217000000Y-52716250D02*
X217000000Y-51000000D01*
X216852500Y-52863750D02*
X217000000Y-52716250D01*
X217500000Y-50500000D02*
X246000000Y-50500000D01*
X314500000Y-64000000D02*
X329500000Y-64000000D01*
X246000000Y-50500000D02*
X250000000Y-54500000D01*
X250000000Y-54500000D02*
X254500000Y-54500000D01*
X188500000Y-69500000D02*
X188500000Y-71691250D01*
X112077500Y-71577500D02*
X112000000Y-71500000D01*
X112000000Y-71500000D02*
X112000000Y-69500000D01*
X188500000Y-71691250D02*
X188277500Y-71913750D01*
X112077500Y-71913750D02*
X112077500Y-71577500D01*
X112000000Y-69500000D02*
X113000000Y-68500000D01*
X113000000Y-68500000D02*
X187500000Y-68500000D01*
X187500000Y-68500000D02*
X188500000Y-69500000D01*
X277500000Y-57000000D02*
X279000000Y-57000000D01*
X198000000Y-52666250D02*
X197802500Y-52863750D01*
X199000000Y-49500000D02*
X198000000Y-50500000D01*
X270000000Y-49500000D02*
X258000000Y-49500000D01*
X277500000Y-57000000D02*
X270000000Y-49500000D01*
X258000000Y-49500000D02*
X254000000Y-53500000D01*
X198000000Y-50500000D02*
X198000000Y-52666250D01*
X254000000Y-53500000D02*
X250500000Y-53500000D01*
X246500000Y-49500000D02*
X199000000Y-49500000D01*
X250500000Y-53500000D02*
X246500000Y-49500000D01*
X309000000Y-57000000D02*
X277500000Y-57000000D01*
X329000000Y-63000000D02*
X315000000Y-63000000D01*
X315000000Y-63000000D02*
X309000000Y-57000000D01*
X336200000Y-59500000D02*
X332500000Y-59500000D01*
X332500000Y-59500000D02*
X329000000Y-63000000D01*
X131127500Y-71372500D02*
X131500000Y-71000000D01*
X131500000Y-71000000D02*
X131500000Y-70500000D01*
X131127500Y-71913750D02*
X131127500Y-71372500D01*
X169000000Y-71686250D02*
X169227500Y-71913750D01*
X132500000Y-69500000D02*
X168000000Y-69500000D01*
X169000000Y-70500000D02*
X169000000Y-71686250D01*
X131500000Y-70500000D02*
X132500000Y-69500000D01*
X168000000Y-69500000D02*
X169000000Y-70500000D01*
X332000000Y-58500000D02*
X336200000Y-58500000D01*
X328500000Y-62000000D02*
X332000000Y-58500000D01*
X315500000Y-62000000D02*
X328500000Y-62000000D01*
X309500000Y-56000000D02*
X315500000Y-62000000D01*
X179000000Y-52616250D02*
X179000000Y-49500000D01*
X179000000Y-49500000D02*
X180000000Y-48500000D01*
X180000000Y-48500000D02*
X270500000Y-48500000D01*
X178752500Y-52863750D02*
X179000000Y-52616250D01*
X270500000Y-48500000D02*
X278000000Y-56000000D01*
X278000000Y-56000000D02*
X309500000Y-56000000D01*
X331500000Y-57500000D02*
X336200000Y-57500000D01*
X316000000Y-61000000D02*
X328000000Y-61000000D01*
X310000000Y-55000000D02*
X316000000Y-61000000D01*
X159702500Y-52863750D02*
X160000000Y-52566250D01*
X160000000Y-52566250D02*
X160000000Y-48500000D01*
X160000000Y-48500000D02*
X161000000Y-47500000D01*
X161000000Y-47500000D02*
X276500000Y-47500000D01*
X276500000Y-47500000D02*
X284000000Y-55000000D01*
X328000000Y-61000000D02*
X331500000Y-57500000D01*
X284000000Y-55000000D02*
X310000000Y-55000000D01*
X277000000Y-46500000D02*
X265500000Y-46500000D01*
X265500000Y-46500000D02*
X263500000Y-44500000D01*
X284500000Y-54000000D02*
X277000000Y-46500000D01*
X315500000Y-54000000D02*
X284500000Y-54000000D01*
X336200000Y-56500000D02*
X331000000Y-56500000D01*
X324000000Y-56000000D02*
X321000000Y-53000000D01*
X330500000Y-56000000D02*
X324000000Y-56000000D01*
X263500000Y-44500000D02*
X162500000Y-44500000D01*
X316500000Y-53000000D02*
X315500000Y-54000000D01*
X331000000Y-56500000D02*
X330500000Y-56000000D01*
X321000000Y-53000000D02*
X316500000Y-53000000D01*
X73183750Y-90963750D02*
X73183750Y-90683750D01*
X73000000Y-90500000D02*
X73000000Y-90000000D01*
X73183750Y-90683750D02*
X73000000Y-90500000D01*
X331500000Y-55500000D02*
X327000022Y-51000022D01*
X336200000Y-55500000D02*
X331500000Y-55500000D01*
X327000022Y-51000022D02*
X290500000Y-51000022D01*
X290000014Y-73000000D02*
X290500000Y-72500014D01*
X262096250Y-71913750D02*
X263182500Y-73000000D01*
X263182500Y-73000000D02*
X290000014Y-73000000D01*
X261999986Y-81500000D02*
X262499986Y-81000000D01*
X73147500Y-91000000D02*
X73183750Y-90963750D01*
X25500000Y-81000000D02*
X61500000Y-81000000D01*
X62500000Y-82000000D02*
X62500000Y-90000000D01*
X62500000Y-90000000D02*
X63500000Y-91000000D01*
X24500000Y-80000000D02*
X25500000Y-81000000D01*
X61500000Y-81000000D02*
X62500000Y-82000000D01*
X63500000Y-91000000D02*
X73147500Y-91000000D01*
X78000000Y-81500000D02*
X86000000Y-81500000D01*
X86000000Y-81500000D02*
X261999986Y-81500000D01*
X73183750Y-90963750D02*
X75536250Y-90963750D01*
X85500000Y-81500000D02*
X86000000Y-81500000D01*
X75536250Y-90963750D02*
X76500000Y-90000000D01*
X76500000Y-90000000D02*
X76500000Y-83000000D01*
X76500000Y-83000000D02*
X78000000Y-81500000D01*
M02*
